<svg xmlns="http://www.w3.org/2000/svg" viewBox="0 0 306.69 174.43"><defs><style>.cls-1{fill:#6d2024;}</style></defs><g id="Слой_2" data-name="Слой 2"><g id="Layer_1" data-name="Layer 1"><path class="cls-1" d="M20.53,85.53a345.72,345.72,0,0,1,65.9-10.45L81.22,62.51c-4.6,3.66-10.43,5.53-15.87,7.54L45.27,77.47,5.12,92.31C-3.68,95.56-.33,108.63,9,106.5a479.48,479.48,0,0,1,85.7-11.43L91,81.35c-22.27,11.92-48.63,15.9-73,21.77-3.89.94-6.13,5.3-5.14,9,1.13,4.27,5.14,5.68,9.06,5.15l37.45-5.07,17.74-2.4c6.17-.84,12.6-2.31,18.82-2.43l-3.71-1,.83.49q-1.81-3.18-3.65-6.35l0,.59c1.22-2.11,2.43-4.23,3.65-6.35-.17.12-.34.24-.5.37H100l-.41-.24c-8.17-4.84-15.58,7.88-7.43,12.71l.41.24c2.08,1.23,5.38,1.51,7.43,0,2.72-2,3.94-3.91,4.19-7.32a7.3,7.3,0,0,0-3.65-6.36c-5.43-3.21-13.51-.41-19.4.39l-20.7,2.8-42.38,5.73q2,7.09,3.92,14.2c25.68-6.2,53-10.67,76.48-23.26,6.36-3.4,3.54-14-3.72-13.71a502.24,502.24,0,0,0-89.62,12q2,7.09,3.92,14.19l43.8-16.18C66,85.47,80.52,81.75,91.63,72.92c5-4,.85-12.93-5.2-12.57a367.86,367.86,0,0,0-69.81,11c-9.17,2.37-5.28,16.57,3.91,14.19Z"/><path class="cls-1" d="M226.1,80.58a265.23,265.23,0,0,1,71.43,11.76V78.15c-23.07,6.17-46.78-4.8-70.14-3.37-8.06.5-10.27,12.17-2,14.46L293.28,108q-1.62-6.15-3.25-12.3C288.48,97,280,94.34,278.14,94l-17.32-2.84-33.68-5.52c-9.28-1.52-13,11-3.91,14.2a274.93,274.93,0,0,0,33.28,9.6q8.24,1.8,16.58,3.08c2.81.43,5.63.8,8.45,1.18,1.8.24,4.1.19,5.4,1.57l5.21-12.57a291.71,291.71,0,0,1-68.51-8.3c-9.21-2.25-13.13,11.94-3.92,14.19a309,309,0,0,0,72.43,8.83c6.5,0,9.54-8,5.2-12.56-3.81-4-8.68-5-14-5.65-6.47-.84-12.91-1.89-19.31-3.19a273.83,273.83,0,0,1-36.95-10.38q-1.95,7.1-3.91,14.2l41.37,6.78c6.55,1.08,13.1,2.27,19.67,3.21,6.14.87,11.31.32,16.17-3.79,4.34-3.67,1.76-10.92-3.24-12.31L229.35,75.05q-1,7.23-2,14.46C252.33,88,276.62,99,301.44,92.34c7.19-1.92,6.82-12.09,0-14.19A280.29,280.29,0,0,0,226.1,65.86c-9.48-.25-9.47,14.48,0,14.72Z"/><path class="cls-1" d="M79.09.14A212.32,212.32,0,0,0,6.48,27.76c-8.08,4.92-.69,17.66,7.43,12.71A201.13,201.13,0,0,1,83,14.33C92.31,12.65,88.37-1.54,79.09.14Z"/><path class="cls-1" d="M224.74,18.36a141.19,141.19,0,0,1,66.95,18c8.27,4.64,15.7-8.07,7.43-12.71a157,157,0,0,0-74.38-20c-9.48-.15-9.48,14.57,0,14.72Z"/><path class="cls-1" d="M103.36,143.75c4,40.24,49.17,39.63,59,5.57l-6.73,1.26c12.66,29,51.54,35.23,59.71-2.82,1.39-6.5-5.71-9.28-7.1-2.81-6.23,29-37,21.41-46.25.31-1.82-4.16-5.55-2.82-6.73,1.26-3.6,12.56-15.27,17.35-23.87,17.27C121,163.69,112,156.4,110.46,141c-.67-6.69-7.76-3.85-7.1,2.8Z"/></g></g></svg>