<svg xmlns="http://www.w3.org/2000/svg" viewBox="0 0 260.79 117.98"><defs><style>.cls-1{fill:#9b3434;}</style></defs><g id="Слой_2" data-name="Слой 2"><g id="Layer_1" data-name="Layer 1"><path class="cls-1" d="M74.28,87.3c4,40.24,49.17,39.63,58.95,5.57l-6.73,1.26c12.66,29,51.54,35.23,59.71-2.83,1.39-6.49-5.71-9.27-7.1-2.8-6.23,29-37,21.41-46.25.31-1.82-4.16-5.55-2.83-6.73,1.26-3.6,12.55-15.27,17.35-23.87,17.27-10.33-.1-19.33-7.39-20.88-22.84-.67-6.69-7.76-3.85-7.1,2.8Z"/><path  class="cls-1" d="M55.92,14.22C50.75,4.14,38.66-2.1,27.13.65c-.45.11-.88.25-1.31.38a25.77,25.77,0,0,0-10,3.24,23.22,23.22,0,0,0-9.14,9.59,20.46,20.46,0,0,0-3.88,5C-2.69,28.75.27,41.08,8.65,48.49a29,29,0,0,0,30.43,5,30,30,0,0,0,17-17A24.69,24.69,0,0,0,55.92,14.22ZM41.72,24a8.25,8.25,0,0,1-8.38-8.11,8.39,8.39,0,0,1,16.77,0A8.26,8.26,0,0,1,41.72,24Z"/><path  class="cls-1" d="M258,18.9a20.7,20.7,0,0,0-3.88-5A23.22,23.22,0,0,0,245,4.27,25.77,25.77,0,0,0,235,1c-.43-.13-.86-.27-1.31-.38C222.13-2.1,210,4.14,204.87,14.22a24.69,24.69,0,0,0-.17,22.29,30,30,0,0,0,17,17,29,29,0,0,0,30.43-5C260.52,41.08,263.48,28.75,258,18.9Zm-39,5.09a8.26,8.26,0,0,1-8.39-8.11,8.39,8.39,0,0,1,16.77,0A8.25,8.25,0,0,1,219.07,24Z"/></g></g></svg>