<?xml version="1.0" encoding="utf-8"?><!DOCTYPE svg PUBLIC '-//W3C//DTD SVG 1.1//EN' 'http://www.w3.org/Graphics/SVG/1.1/DTD/svg11.dtd'><svg width="1189" height="1006" viewBox="0 0 1189 1006" xmlns="http://www.w3.org/2000/svg" xmlns:xlink="http://www.w3.org/1999/xlink"><svg viewBox="-10 -10 326.69 194.43" width="326.69" height="194.43" id="card-hover" y="532" xmlns="http://www.w3.org/2000/svg"><defs><style>.bcls-1{fill:#6d2024}</style></defs><g id="bСлой_2" data-name="Слой 2"><g id="bLayer_1" data-name="Layer 1"><path class="bcls-1" d="M20.53 85.53a345.72 345.72 0 0 1 65.9-10.45l-5.21-12.57c-4.6 3.66-10.43 5.53-15.87 7.54l-20.08 7.42L5.12 92.31C-3.68 95.56-.33 108.63 9 106.5a479.48 479.48 0 0 1 85.7-11.43L91 81.35c-22.27 11.92-48.63 15.9-73 21.77-3.89.94-6.13 5.3-5.14 9 1.13 4.27 5.14 5.68 9.06 5.15l37.45-5.07 17.74-2.4c6.17-.84 12.6-2.31 18.82-2.43l-3.71-1 .83.49q-1.81-3.18-3.65-6.35v.59c1.22-2.11 2.43-4.23 3.65-6.35-.17.12-.34.24-.5.37H100l-.41-.24c-8.17-4.84-15.58 7.88-7.43 12.71l.41.24c2.08 1.23 5.38 1.51 7.43 0 2.72-2 3.94-3.91 4.19-7.32a7.3 7.3 0 0 0-3.65-6.36c-5.43-3.21-13.51-.41-19.4.39l-20.7 2.8-42.38 5.73q2 7.09 3.92 14.2c25.68-6.2 53-10.67 76.48-23.26 6.36-3.4 3.54-14-3.72-13.71a502.24 502.24 0 0 0-89.62 12q2 7.09 3.92 14.19l43.8-16.18C66 85.47 80.52 81.75 91.63 72.92c5-4 .85-12.93-5.2-12.57a367.86 367.86 0 0 0-69.81 11c-9.17 2.37-5.28 16.57 3.91 14.19ZM226.1 80.58a265.23 265.23 0 0 1 71.43 11.76V78.15c-23.07 6.17-46.78-4.8-70.14-3.37-8.06.5-10.27 12.17-2 14.46L293.28 108q-1.62-6.15-3.25-12.3C288.48 97 280 94.34 278.14 94l-17.32-2.84-33.68-5.52c-9.28-1.52-13 11-3.91 14.2a274.93 274.93 0 0 0 33.28 9.6q8.24 1.8 16.58 3.08c2.81.43 5.63.8 8.45 1.18 1.8.24 4.1.19 5.4 1.57l5.21-12.57a291.71 291.71 0 0 1-68.51-8.3c-9.21-2.25-13.13 11.94-3.92 14.19a309 309 0 0 0 72.43 8.83c6.5 0 9.54-8 5.2-12.56-3.81-4-8.68-5-14-5.65-6.47-.84-12.91-1.89-19.31-3.19a273.83 273.83 0 0 1-36.95-10.38q-1.95 7.1-3.91 14.2l41.37 6.78c6.55 1.08 13.1 2.27 19.67 3.21 6.14.87 11.31.32 16.17-3.79 4.34-3.67 1.76-10.92-3.24-12.31l-67.8-18.68-2 14.46c24.98-1.51 49.27 9.49 74.09 2.83 7.19-1.92 6.82-12.09 0-14.19a280.29 280.29 0 0 0-75.34-12.29c-9.48-.25-9.47 14.48 0 14.72ZM79.09.14A212.32 212.32 0 0 0 6.48 27.76c-8.08 4.92-.69 17.66 7.43 12.71A201.13 201.13 0 0 1 83 14.33c9.31-1.68 5.37-15.87-3.91-14.19ZM224.74 18.36a141.19 141.19 0 0 1 66.95 18c8.27 4.64 15.7-8.07 7.43-12.71a157 157 0 0 0-74.38-20c-9.48-.15-9.48 14.57 0 14.72ZM103.36 143.75c4 40.24 49.17 39.63 59 5.57l-6.73 1.26c12.66 29 51.54 35.23 59.71-2.82 1.39-6.5-5.71-9.28-7.1-2.81-6.23 29-37 21.41-46.25.31-1.82-4.16-5.55-2.82-6.73 1.26-3.6 12.56-15.27 17.35-23.87 17.27-10.39-.1-19.39-7.39-20.93-22.79-.67-6.69-7.76-3.85-7.1 2.8Z"/></g></g></svg><svg viewBox="-10 -10 326.69 194.43" width="326.69" height="194.43" id="card-hover-dark-theme" x="326.69" y="532" xmlns="http://www.w3.org/2000/svg"><defs><style>.acls-1{fill:#692124}</style></defs><g id="aСлой_2" data-name="Слой 2"><g id="aLayer_1" data-name="Layer 1"><path class="acls-1" d="M20.53 85.53a345.72 345.72 0 0 1 65.9-10.45l-5.21-12.57c-4.6 3.66-10.43 5.53-15.87 7.54l-20.08 7.42L5.12 92.31C-3.68 95.56-.33 108.63 9 106.5a479.48 479.48 0 0 1 85.7-11.43L91 81.35c-22.27 11.92-48.63 15.9-73 21.77-3.89.94-6.13 5.3-5.14 9 1.13 4.27 5.14 5.68 9.06 5.15l37.45-5.07 17.74-2.4c6.17-.84 12.6-2.31 18.82-2.43l-3.71-1 .83.49q-1.81-3.18-3.65-6.35v.59c1.22-2.11 2.43-4.23 3.65-6.35-.17.12-.34.24-.5.37H100l-.41-.24c-8.17-4.84-15.58 7.88-7.43 12.71l.41.24c2.08 1.23 5.38 1.51 7.43 0 2.72-2 3.94-3.91 4.19-7.32a7.3 7.3 0 0 0-3.65-6.36c-5.43-3.21-13.51-.41-19.4.39l-20.7 2.8-42.38 5.73q2 7.09 3.92 14.2c25.68-6.2 53-10.67 76.48-23.26 6.36-3.4 3.54-14-3.72-13.71a502.24 502.24 0 0 0-89.62 12q2 7.09 3.92 14.19l43.8-16.18C66 85.47 80.52 81.75 91.63 72.92c5-4 .85-12.93-5.2-12.57a367.86 367.86 0 0 0-69.81 11c-9.17 2.37-5.28 16.57 3.91 14.19ZM226.1 80.58a265.23 265.23 0 0 1 71.43 11.76V78.15c-23.07 6.17-46.78-4.8-70.14-3.37-8.06.5-10.27 12.17-2 14.46L293.28 108q-1.62-6.15-3.25-12.3C288.48 97 280 94.34 278.14 94l-17.32-2.84-33.68-5.52c-9.28-1.52-13 11-3.91 14.2a274.93 274.93 0 0 0 33.28 9.6q8.24 1.8 16.58 3.08c2.81.43 5.63.8 8.45 1.18 1.8.24 4.1.19 5.4 1.57l5.21-12.57a291.71 291.71 0 0 1-68.51-8.3c-9.21-2.25-13.13 11.94-3.92 14.19a309 309 0 0 0 72.43 8.83c6.5 0 9.54-8 5.2-12.56-3.81-4-8.68-5-14-5.65-6.47-.84-12.91-1.89-19.31-3.19a273.83 273.83 0 0 1-36.95-10.38q-1.95 7.1-3.91 14.2l41.37 6.78c6.55 1.08 13.1 2.27 19.67 3.21 6.14.87 11.31.32 16.17-3.79 4.34-3.67 1.76-10.92-3.24-12.31l-67.8-18.68-2 14.46c24.98-1.51 49.27 9.49 74.09 2.83 7.19-1.92 6.82-12.09 0-14.19a280.29 280.29 0 0 0-75.34-12.29c-9.48-.25-9.47 14.48 0 14.72ZM79.09.14A212.32 212.32 0 0 0 6.48 27.76c-8.08 4.92-.69 17.66 7.43 12.71A201.13 201.13 0 0 1 83 14.33c9.31-1.68 5.37-15.87-3.91-14.19ZM224.74 18.36a141.19 141.19 0 0 1 66.95 18c8.27 4.64 15.7-8.07 7.43-12.71a157 157 0 0 0-74.38-20c-9.48-.15-9.48 14.57 0 14.72ZM103.36 143.75c4 40.24 49.17 39.63 59 5.57l-6.73 1.26c12.66 29 51.54 35.23 59.71-2.82 1.39-6.5-5.71-9.28-7.1-2.81-6.23 29-37 21.41-46.25.31-1.82-4.16-5.55-2.82-6.73 1.26-3.6 12.56-15.27 17.35-23.87 17.27-10.39-.1-19.39-7.39-20.93-22.79-.67-6.69-7.76-3.85-7.1 2.8Z"/></g></g></svg><svg viewBox="-10 -10 280.79 137.98" width="280.79" height="137.98" id="card-normal" x="653.38" y="532" xmlns="http://www.w3.org/2000/svg"><defs><style>.dcls-1{fill:#9b3434}</style></defs><g id="dСлой_2" data-name="Слой 2"><g id="dLayer_1" data-name="Layer 1"><path class="dcls-1" d="M74.28 87.3c4 40.24 49.17 39.63 58.95 5.57l-6.73 1.26c12.66 29 51.54 35.23 59.71-2.83 1.39-6.49-5.71-9.27-7.1-2.8-6.23 29-37 21.41-46.25.31-1.82-4.16-5.55-2.83-6.73 1.26-3.6 12.55-15.27 17.35-23.87 17.27-10.33-.1-19.33-7.39-20.88-22.84-.67-6.69-7.76-3.85-7.1 2.8ZM55.92 14.22C50.75 4.14 38.66-2.1 27.13.65c-.45.11-.88.25-1.31.38a25.77 25.77 0 0 0-10 3.24 23.22 23.22 0 0 0-9.14 9.59 20.46 20.46 0 0 0-3.88 5C-2.69 28.75.27 41.08 8.65 48.49a29 29 0 0 0 30.43 5 30 30 0 0 0 17-17 24.69 24.69 0 0 0-.16-22.27ZM41.72 24a8.25 8.25 0 0 1-8.38-8.11 8.39 8.39 0 0 1 16.77 0A8.26 8.26 0 0 1 41.72 24ZM258 18.9a20.7 20.7 0 0 0-3.88-5A23.22 23.22 0 0 0 245 4.27 25.77 25.77 0 0 0 235 1c-.43-.13-.86-.27-1.31-.38-11.56-2.72-23.69 3.52-28.82 13.6a24.69 24.69 0 0 0-.17 22.29 30 30 0 0 0 17 17 29 29 0 0 0 30.43-5c8.39-7.43 11.35-19.76 5.87-29.61Zm-39 5.09a8.26 8.26 0 0 1-8.39-8.11 8.39 8.39 0 0 1 16.77 0 8.25 8.25 0 0 1-8.31 8.12Z"/></g></g></svg><svg viewBox="-10 -10 280.79 137.98" width="280.79" height="137.98" id="card-normal-dark-theme" y="726.4300000000001" xmlns="http://www.w3.org/2000/svg"><defs><style>.ccls-1{fill:#8c3438}</style></defs><g id="cСлой_2" data-name="Слой 2"><g id="cLayer_1" data-name="Layer 1"><path class="ccls-1" d="M74.28 87.3c4 40.24 49.17 39.63 58.95 5.57l-6.73 1.26c12.66 29 51.54 35.23 59.71-2.83 1.39-6.49-5.71-9.27-7.1-2.8-6.23 29-37 21.41-46.25.31-1.82-4.16-5.55-2.83-6.73 1.26-3.6 12.55-15.27 17.35-23.87 17.27-10.33-.1-19.33-7.39-20.88-22.84-.67-6.69-7.76-3.85-7.1 2.8ZM55.92 14.22C50.75 4.14 38.66-2.1 27.13.65c-.45.11-.88.25-1.31.38a25.77 25.77 0 0 0-10 3.24 23.22 23.22 0 0 0-9.14 9.59 20.46 20.46 0 0 0-3.88 5C-2.69 28.75.27 41.08 8.65 48.49a29 29 0 0 0 30.43 5 30 30 0 0 0 17-17 24.69 24.69 0 0 0-.16-22.27ZM41.72 24a8.25 8.25 0 0 1-8.38-8.11 8.39 8.39 0 0 1 16.77 0A8.26 8.26 0 0 1 41.72 24ZM258 18.9a20.7 20.7 0 0 0-3.88-5A23.22 23.22 0 0 0 245 4.27 25.77 25.77 0 0 0 235 1c-.43-.13-.86-.27-1.31-.38-11.56-2.72-23.69 3.52-28.82 13.6a24.69 24.69 0 0 0-.17 22.29 30 30 0 0 0 17 17 29 29 0 0 0 30.43-5c8.39-7.43 11.35-19.76 5.87-29.61Zm-39 5.09a8.26 8.26 0 0 1-8.39-8.11 8.39 8.39 0 0 1 16.77 0 8.25 8.25 0 0 1-8.31 8.12Z"/></g></g></svg><svg viewBox="-10 -10 33.07 33.07" style="enable-background:new 0 0 13.066 13.066" xml:space="preserve" width="33.07" height="33.07" id="mode-select-heart" x="1064" y="285.76" xmlns="http://www.w3.org/2000/svg"><path style="fill:#000" d="M6.555 12.558a.41.41 0 0 1-.273-.103C6.049 12.255.564 7.501.083 4.57-.133 3.243.071 2.201.69 1.474 1.22.85 2.034.507 2.982.507c.082 0 .165.002.247.008.058-.003.115-.004.172-.004 1.048 0 2.343.461 3.109 2.421C6.94 1.736 7.821.515 9.838.515c1.135 0 2.023.342 2.571.987.597.701.787 1.733.569 3.068-.479 2.929-5.918 7.684-6.149 7.884a.408.408 0 0 1-.274.104z"/></svg><svg viewBox="-10 -10 33.07 33.07" style="enable-background:new 0 0 13.066 13.066" xml:space="preserve" width="33.07" height="33.07" id="mode-select-heart-dark-theme" x="1097.07" y="285.76" xmlns="http://www.w3.org/2000/svg"><path style="fill:#eab7b7" d="M6.555 12.558a.41.41 0 0 1-.273-.103C6.049 12.255.564 7.501.083 4.57-.133 3.243.071 2.201.69 1.474 1.22.85 2.034.507 2.982.507c.082 0 .165.002.247.008.058-.003.115-.004.172-.004 1.048 0 2.343.461 3.109 2.421C6.94 1.736 7.821.515 9.838.515c1.135 0 2.023.342 2.571.987.597.701.787 1.733.569 3.068-.479 2.929-5.918 7.684-6.149 7.884a.408.408 0 0 1-.274.104z"/></svg><svg viewBox="-10 -10 532 532" width="532" height="532" id="moon" xmlns="http://www.w3.org/2000/svg"><path fill="#eab7b7" d="M494.9 331.3c-6.1-6.1-15.3-7.8-23.2-4.2-37.1 17.1-78.3 23.2-119 17.6-117.3-16.3-199.5-125.2-183.3-242.8 3-21.4 9-42.2 18.1-61.6 3.6-7.8 2-17.1-4.1-23.2-6.1-6.1-15.3-7.7-23.2-4.2C116.5 32.3 29.9 94 13.7 210.8c-25.8 186.5 139 284.9 218.4 289.2 55.7 3.1 189.9 8.1 266.9-145.5 3.8-7.7 2-17.1-4.1-23.2zM237.7 459.2C120.4 442.9 38.2 334 54.4 216.4c7.6-55 35.5-103.8 77.4-137.7-1.2 5.8-2.2 11.6-3 17.5-27.2 193.6 143 282.8 218.3 289.2 29 2.5 57.9 3.1 86-2.7-46.5 57.2-119.7 87-195.4 76.5z"/></svg><svg viewBox="-10 -10 142.88 141.06" style="enable-background:new 0 0 122.88 121.06" xml:space="preserve" width="142.88" height="141.06" id="music-off" y="864.4100000000001" xmlns="http://www.w3.org/2000/svg"><path d="M7.6 22.7c-2.91-2.12-3.56-6.2-1.44-9.12s6.2-3.56 9.11-1.44l104.93 76.5c2.91 2.12 3.55 6.2 1.43 9.12-2.12 2.91-6.2 3.56-9.11 1.44L7.6 22.7zm81.25 29.27V23.09l-28.42 8.16-24.01-17.5L96.79 0v57.76l-7.94-5.79zm-52.52 5.49v45.08c.03.32.05.64.05.96v.01c0 7.76-8.14 15.46-18.19 17.2C8.15 122.44 0 117.55 0 109.79S8.15 94.33 18.19 92.6c3.78-.65 7.29-.36 10.21.66V51.68l7.93 5.78zm56.54 41.23c-2.77 2.77-6.71 4.88-11.09 5.63-8.39 1.45-15.19-2.63-15.19-9.12-.01-4.03 2.62-8.04 6.62-10.84l19.66 14.33z"/></svg><svg viewBox="-10 -10 142.88 141.06" style="enable-background:new 0 0 122.88 121.06" xml:space="preserve" width="142.88" height="141.06" id="music-off-dark-theme" x="142.88" y="864.4100000000001" xmlns="http://www.w3.org/2000/svg"><path fill="#eab7b7" d="M7.6 22.7c-2.91-2.12-3.56-6.2-1.44-9.12s6.2-3.56 9.11-1.44l104.93 76.5c2.91 2.12 3.55 6.2 1.43 9.12-2.12 2.91-6.2 3.56-9.11 1.44L7.6 22.7zm81.25 29.27V23.09l-28.42 8.16-24.01-17.5L96.79 0v57.76l-7.94-5.79zm-52.52 5.49v45.08c.03.32.05.64.05.96v.01c0 7.76-8.14 15.46-18.19 17.2C8.15 122.44 0 117.55 0 109.79S8.15 94.33 18.19 92.6c3.78-.65 7.29-.36 10.21.66V51.68l7.93 5.78zm56.54 41.23c-2.77 2.77-6.71 4.88-11.09 5.63-8.39 1.45-15.19-2.63-15.19-9.12-.01-4.03 2.62-8.04 6.62-10.84l19.66 14.33z"/></svg><svg viewBox="-10 -10 124.23 142.88" style="enable-background:new 0 0 104.23 122.88" xml:space="preserve" width="124.23" height="142.88" id="music-on" x="1064" xmlns="http://www.w3.org/2000/svg"><path d="M87.9 78.04c2.74-.48 5.33-.4 7.6.13V24.82L39.05 41.03v61.95c.03.34.05.69.05 1.03v.01c0 8.34-8.75 16.62-19.55 18.49C8.76 124.37 0 119.12 0 110.77c0-8.34 8.76-16.62 19.55-18.48 4.06-.7 7.84-.39 10.97.71V16.74h.47L104.04 0v85.92c.13.63.2 1.27.2 1.91v.01c0 6.97-7.32 13.89-16.33 15.44-9.02 1.56-16.33-2.83-16.33-9.8-.01-6.97 7.3-13.89 16.32-15.44z" style="fill-rule:evenodd;clip-rule:evenodd"/></svg><svg viewBox="-10 -10 124.23 142.88" style="enable-background:new 0 0 104.23 122.88" xml:space="preserve" width="124.23" height="142.88" id="music-on-dark-theme" x="1064" y="142.88" xmlns="http://www.w3.org/2000/svg"><path fill="#eab7b7" d="M87.9 78.04c2.74-.48 5.33-.4 7.6.13V24.82L39.05 41.03v61.95c.03.34.05.69.05 1.03v.01c0 8.34-8.75 16.62-19.55 18.49C8.76 124.37 0 119.12 0 110.77c0-8.34 8.76-16.62 19.55-18.48 4.06-.7 7.84-.39 10.97.71V16.74h.47L104.04 0v85.92c.13.63.2 1.27.2 1.91v.01c0 6.97-7.32 13.89-16.33 15.44-9.02 1.56-16.33-2.83-16.33-9.8-.01-6.97 7.3-13.89 16.32-15.44z" style="fill-rule:evenodd;clip-rule:evenodd"/></svg><svg viewBox="-10 -10 33.07 33.07" style="enable-background:new 0 0 13.066 13.066" xml:space="preserve" width="33.07" height="33.07" id="preloader-heart" x="1130.1399999999999" y="285.76" xmlns="http://www.w3.org/2000/svg"><path style="fill:#030104" d="M6.555 12.558a.41.41 0 0 1-.273-.103C6.049 12.255.564 7.501.083 4.57-.133 3.243.071 2.201.69 1.474 1.22.85 2.034.507 2.982.507c.082 0 .165.002.247.008.058-.003.115-.004.172-.004 1.048 0 2.343.461 3.109 2.421C6.94 1.736 7.821.515 9.838.515c1.135 0 2.023.342 2.571.987.597.701.787 1.733.569 3.068-.479 2.929-5.918 7.684-6.149 7.884a.408.408 0 0 1-.274.104z"/></svg><svg viewBox="-10 -10 33.07 33.07" style="enable-background:new 0 0 13.066 13.066" xml:space="preserve" width="33.07" height="33.07" id="preloader-heart-dark-theme" x="1064" y="318.83" xmlns="http://www.w3.org/2000/svg"><path style="fill:#eab7b7" d="M6.555 12.558a.41.41 0 0 1-.273-.103C6.049 12.255.564 7.501.083 4.57-.133 3.243.071 2.201.69 1.474 1.22.85 2.034.507 2.982.507c.082 0 .165.002.247.008.058-.003.115-.004.172-.004 1.048 0 2.343.461 3.109 2.421C6.94 1.736 7.821.515 9.838.515c1.135 0 2.023.342 2.571.987.597.701.787 1.733.569 3.068-.479 2.929-5.918 7.684-6.149 7.884a.408.408 0 0 1-.274.104z"/></svg><svg viewBox="-10 -10 532 532" width="532" height="532" id="sun" x="532" xmlns="http://www.w3.org/2000/svg"><path d="M256 105.5c-83.9 0-152.2 68.3-152.2 152.2 0 83.9 68.3 152.2 152.2 152.2 83.9 0 152.2-68.3 152.2-152.2 0-84-68.3-152.2-152.2-152.2zm0 263.5c-61.4 0-111.4-50-111.4-111.4 0-61.4 50-111.4 111.4-111.4 61.4 0 111.4 50 111.4 111.4 0 61.4-50 111.4-111.4 111.4zM256 74.8c11.3 0 20.4-9.1 20.4-20.4v-23c0-11.3-9.1-20.4-20.4-20.4-11.3 0-20.4 9.1-20.4 20.4v23c0 11.3 9.1 20.4 20.4 20.4zM256 437.2c-11.3 0-20.4 9.1-20.4 20.4v22.9c0 11.3 9.1 20.4 20.4 20.4 11.3 0 20.4-9.1 20.4-20.4v-22.9c0-11.2-9.1-20.4-20.4-20.4zM480.6 235.6h-23c-11.3 0-20.4 9.1-20.4 20.4 0 11.3 9.1 20.4 20.4 20.4h23c11.3 0 20.4-9.1 20.4-20.4 0-11.3-9.1-20.4-20.4-20.4zM54.4 235.6h-23c-11.3 0-20.4 9.1-20.4 20.4 0 11.3 9.1 20.4 20.4 20.4h22.9c11.3 0 20.4-9.1 20.4-20.4.1-11.3-9.1-20.4-20.3-20.4zM400.4 82.8 384.1 99c-8 8-8 20.9 0 28.9s20.9 8 28.9 0l16.2-16.2c8-8 8-20.9 0-28.9s-20.9-8-28.8 0zM99 384.1l-16.2 16.2c-8 8-8 20.9 0 28.9s20.9 8 28.9 0l16.2-16.2c8-8 8-20.9 0-28.9s-20.9-7.9-28.9 0zM413 384.1c-8-8-20.9-8-28.9 0s-8 20.9 0 28.9l16.2 16.2c8 8 20.9 8 28.9 0s8-20.9 0-28.9L413 384.1zM99 127.9c8 8 20.9 8 28.9 0s8-20.9 0-28.9l-16.2-16.2c-8-8-20.9-8-28.9 0s-8 20.9 0 28.9L99 127.9z"/></svg><svg viewBox="-10 -10 33.07 33.07" style="enable-background:new 0 0 13.066 13.066" xml:space="preserve" width="33.07" height="33.07" id="tries-counter-heart" x="1097.07" y="318.83" xmlns="http://www.w3.org/2000/svg"><path style="fill:#762125" d="M6.555 12.558a.41.41 0 0 1-.273-.103C6.049 12.255.564 7.501.083 4.57-.133 3.243.071 2.201.69 1.474 1.22.85 2.034.507 2.982.507c.082 0 .165.002.247.008.058-.003.115-.004.172-.004 1.048 0 2.343.461 3.109 2.421C6.94 1.736 7.821.515 9.838.515c1.135 0 2.023.342 2.571.987.597.701.787 1.733.569 3.068-.479 2.929-5.918 7.684-6.149 7.884a.408.408 0 0 1-.274.104z"/></svg><svg viewBox="-10 -10 33.07 33.07" style="enable-background:new 0 0 13.066 13.066" xml:space="preserve" width="33.07" height="33.07" id="tries-counter-heart-dark-theme" x="1130.1399999999999" y="318.83" xmlns="http://www.w3.org/2000/svg"><path style="fill:#eab7b7" d="M6.555 12.558a.41.41 0 0 1-.273-.103C6.049 12.255.564 7.501.083 4.57-.133 3.243.071 2.201.69 1.474 1.22.85 2.034.507 2.982.507c.082 0 .165.002.247.008.058-.003.115-.004.172-.004 1.048 0 2.343.461 3.109 2.421C6.94 1.736 7.821.515 9.838.515c1.135 0 2.023.342 2.571.987.597.701.787 1.733.569 3.068-.479 2.929-5.918 7.684-6.149 7.884a.408.408 0 0 1-.274.104z"/></svg></svg>